<svg version="1.1" id="Layer_1" xmlns="http://www.w3.org/2000/svg" xmlns:xlink="http://www.w3.org/1999/xlink" x="0px" y="0px"
	 width="100%" viewBox="0 0 586 515" enable-background="new 0 0 586 515" xml:space="preserve">
<path fill="#FCFCFC" opacity="1.000000" stroke="none" 
	d="
M587.000000,7.000000 
	C587.000000,176.621643 587.000000,346.243286 587.000000,515.932495 
	C391.763550,515.932495 196.527054,515.932495 1.000000,515.932495 
	C1.000000,346.641876 1.000000,177.283569 1.461255,7.462669 
	C196.948334,7.000041 391.974182,7.000021 587.000000,7.000000 
M88.927452,185.578323 
	C95.562691,201.381012 102.224167,217.172745 108.828468,232.988342 
	C132.929672,290.704468 157.032700,348.419830 181.039246,406.175293 
	C182.241074,409.066681 183.696487,410.130585 186.880341,410.082092 
	C199.708984,409.886658 212.547821,409.788513 225.370972,410.117981 
	C229.788361,410.231445 231.737213,408.934265 233.068192,404.658752 
	C242.205460,375.306885 251.609543,346.037964 260.950226,316.749512 
	C270.855743,285.690063 280.778473,254.636063 290.710419,223.585022 
	C293.616882,214.498398 296.580444,205.430038 299.517853,196.353317 
	C299.854309,196.363495 300.190796,196.373688 300.527252,196.383865 
	C309.436646,224.205078 318.346008,252.026276 327.379364,280.234680 
	C328.336548,279.374207 328.711578,279.204987 328.774323,278.956757 
	C334.311279,257.052277 339.853729,235.148987 345.273132,213.215302 
	C345.638519,211.736603 345.331543,209.946121 344.885101,208.434158 
	C337.397705,183.075882 329.747559,157.765121 322.401154,132.366409 
	C321.400635,128.907272 319.940826,127.957657 316.552399,128.021011 
	C306.057465,128.217239 295.550140,128.302048 285.061279,127.982544 
	C281.233185,127.865929 279.975342,129.378677 279.015137,132.703445 
	C273.302521,152.483276 267.410736,172.211426 261.555786,191.950043 
	C250.031296,230.802383 238.498718,269.652344 226.955246,308.499054 
	C220.554504,330.039124 214.125031,351.570679 207.534195,373.691132 
	C207.010803,372.464752 206.747330,371.872772 206.503662,371.272797 
	C185.652466,319.928894 164.778305,268.594330 143.960693,217.236832 
	C127.027794,175.463043 110.191391,133.650116 93.249428,91.880013 
	C88.451843,80.051651 88.350830,80.092621 75.342804,80.092621 
	C65.426048,80.092621 55.509300,80.092621 44.931118,80.092621 
	C59.706573,115.532227 74.162216,150.204727 88.927452,185.578323 
M352.794464,202.223526 
	C333.862457,278.158783 314.930450,354.094025 296.525574,427.914948 
	C288.379822,387.577881 279.812744,345.154480 271.245667,302.731110 
	C270.726135,302.788086 270.206573,302.845062 269.687042,302.902039 
	C263.068420,323.978668 256.425995,345.047882 249.888397,366.149628 
	C249.482391,367.460144 249.643677,369.086578 249.971405,370.463623 
	C257.552368,402.318756 265.260681,434.143829 272.725677,466.025940 
	C273.537537,469.493164 275.159821,470.084808 278.220215,470.051514 
	C289.715881,469.926422 301.214905,470.102051 312.710419,469.970703 
	C322.434296,469.859650 320.074860,471.696991 322.457733,462.570068 
	C345.397064,374.707367 368.135956,286.792328 390.946411,198.895996 
	C402.142761,155.752701 413.381561,112.620438 424.574615,69.476295 
	C428.367462,54.856583 432.078827,40.215736 435.977570,24.998478 
	C424.286133,24.998478 413.146271,25.180782 402.018250,24.897224 
	C398.245453,24.801090 396.869110,26.133732 396.001617,29.613075 
	C381.719818,86.896683 367.324066,144.151886 352.794464,202.223526 
M359.498016,336.936127 
	C357.735260,343.517242 355.818054,350.062897 354.294159,356.698853 
	C353.766205,358.997894 353.639801,361.694489 354.309875,363.913574 
	C358.585663,378.073273 363.226410,392.122620 367.520477,406.276978 
	C368.428314,409.269501 369.909943,410.089325 372.854004,410.058289 
	C385.516998,409.924774 398.191620,409.719360 410.841888,410.141998 
	C415.817383,410.308228 418.039490,408.719757 419.903229,404.160431 
	C432.741516,372.753265 445.865173,341.462463 458.952179,310.157288 
	C489.176758,237.857590 519.436523,165.572586 549.666260,93.275032 
	C551.423828,89.071785 553.041687,84.810165 554.916687,80.092369 
	C542.192932,80.092369 530.205078,80.217049 518.222839,80.013260 
	C514.812073,79.955246 513.233337,81.174095 511.998627,84.270210 
	C505.160370,101.417450 498.112518,118.481102 491.133575,135.572205 
	C460.061737,211.665283 428.991425,287.759003 397.907013,363.846924 
	C396.707031,366.784149 395.367706,369.664459 393.685272,373.502106 
	C385.953125,346.768036 378.582031,321.282379 371.210938,295.796692 
	C370.897034,295.826294 370.583130,295.855896 370.269257,295.885498 
	C366.769379,309.311096 363.269470,322.736664 359.498016,336.936127 
M244.423767,193.046646 
	C231.645142,139.900879 218.868042,86.754738 206.086365,33.609695 
	C204.014740,24.996042 204.005386,24.998280 195.305496,24.998270 
	C185.045380,24.998259 174.785248,24.998268 163.951813,24.998268 
	C185.553680,111.374504 206.971558,197.015076 228.389450,282.655640 
	C229.971359,281.187958 230.576385,279.735687 231.024902,278.236633 
	C235.503601,263.267487 239.369507,248.081619 244.603088,233.382309 
	C248.762405,221.700211 250.258652,210.437943 245.892776,198.670197 
	C245.318756,197.123016 245.090729,195.447464 244.423767,193.046646 
z"/>
<path fill="#F6F6F6" opacity="1.000000" stroke="none" 
	d="
M587.000000,6.503960 
	C391.974182,7.000021 196.948334,7.000041 1.461255,7.000031 
	C1.000000,5.001647 1.000000,3.003294 1.000000,1.005481 
	C196.333328,1.006021 391.666656,1.006021 587.000000,1.009032 
	C587.000000,2.677334 587.000000,4.342627 587.000000,6.503960 
z"/>
<path fill="#ABABAB" opacity="1.000000" stroke="none" 
	d="
M88.772652,185.227783 
	C74.162216,150.204727 59.706573,115.532227 44.931118,80.092621 
	C55.509300,80.092621 65.426048,80.092621 75.342804,80.092621 
	C88.350830,80.092621 88.451843,80.051651 93.249428,91.880013 
	C110.191391,133.650116 127.027794,175.463043 143.960693,217.236832 
	C164.778305,268.594330 185.652466,319.928894 206.503662,371.272797 
	C206.747330,371.872772 207.010803,372.464752 207.534195,373.691132 
	C214.125031,351.570679 220.554504,330.039124 226.955246,308.499054 
	C238.498718,269.652344 250.031296,230.802383 261.555786,191.950043 
	C267.410736,172.211426 273.302521,152.483276 279.015137,132.703445 
	C279.975342,129.378677 281.233185,127.865929 285.061279,127.982544 
	C295.550140,128.302048 306.057465,128.217239 316.552399,128.021011 
	C319.940826,127.957657 321.400635,128.907272 322.401154,132.366409 
	C329.747559,157.765121 337.397705,183.075882 344.885101,208.434158 
	C345.331543,209.946121 345.638519,211.736603 345.273132,213.215302 
	C339.853729,235.148987 334.311279,257.052277 328.774323,278.956757 
	C328.711578,279.204987 328.336548,279.374207 327.379364,280.234680 
	C318.346008,252.026276 309.436646,224.205078 300.527252,196.383865 
	C300.190796,196.373688 299.854309,196.363495 299.517853,196.353317 
	C296.580444,205.430038 293.616882,214.498398 290.710419,223.585022 
	C280.778473,254.636063 270.855743,285.690063 260.950226,316.749512 
	C251.609543,346.037964 242.205460,375.306885 233.068192,404.658752 
	C231.737213,408.934265 229.788361,410.231445 225.370972,410.117981 
	C212.547821,409.788513 199.708984,409.886658 186.880341,410.082092 
	C183.696487,410.130585 182.241074,409.066681 181.039246,406.175293 
	C157.032700,348.419830 132.929672,290.704468 108.828468,232.988342 
	C102.224167,217.172745 95.562691,201.381012 88.772652,185.227783 
z"/>
<path fill="#ABABAB" opacity="1.000000" stroke="none" 
	d="
M352.874146,201.818497 
	C367.324066,144.151886 381.719818,86.896683 396.001617,29.613075 
	C396.869110,26.133732 398.245453,24.801090 402.018250,24.897224 
	C413.146271,25.180782 424.286133,24.998478 435.977570,24.998478 
	C432.078827,40.215736 428.367462,54.856583 424.574615,69.476295 
	C413.381561,112.620438 402.142761,155.752701 390.946411,198.895996 
	C368.135956,286.792328 345.397064,374.707367 322.457733,462.570068 
	C320.074860,471.696991 322.434296,469.859650 312.710419,469.970703 
	C301.214905,470.102051 289.715881,469.926422 278.220215,470.051514 
	C275.159821,470.084808 273.537537,469.493164 272.725677,466.025940 
	C265.260681,434.143829 257.552368,402.318756 249.971405,370.463623 
	C249.643677,369.086578 249.482391,367.460144 249.888397,366.149628 
	C256.425995,345.047882 263.068420,323.978668 269.687042,302.902039 
	C270.206573,302.845062 270.726135,302.788086 271.245667,302.731110 
	C279.812744,345.154480 288.379822,387.577881 296.525574,427.914948 
	C314.930450,354.094025 333.862457,278.158783 352.874146,201.818497 
z"/>
<path fill="#ABABAB" opacity="1.000000" stroke="none" 
	d="
M359.633789,336.549194 
	C363.269470,322.736664 366.769379,309.311096 370.269257,295.885498 
	C370.583130,295.855896 370.897034,295.826294 371.210938,295.796692 
	C378.582031,321.282379 385.953125,346.768036 393.685272,373.502106 
	C395.367706,369.664459 396.707031,366.784149 397.907013,363.846924 
	C428.991425,287.759003 460.061737,211.665283 491.133575,135.572205 
	C498.112518,118.481102 505.160370,101.417450 511.998627,84.270210 
	C513.233337,81.174095 514.812073,79.955246 518.222839,80.013260 
	C530.205078,80.217049 542.192932,80.092369 554.916687,80.092369 
	C553.041687,84.810165 551.423828,89.071785 549.666260,93.275032 
	C519.436523,165.572586 489.176758,237.857590 458.952179,310.157288 
	C445.865173,341.462463 432.741516,372.753265 419.903229,404.160431 
	C418.039490,408.719757 415.817383,410.308228 410.841888,410.141998 
	C398.191620,409.719360 385.516998,409.924774 372.854004,410.058289 
	C369.909943,410.089325 368.428314,409.269501 367.520477,406.276978 
	C363.226410,392.122620 358.585663,378.073273 354.309875,363.913574 
	C353.639801,361.694489 353.766205,358.997894 354.294159,356.698853 
	C355.818054,350.062897 357.735260,343.517242 359.633789,336.549194 
z"/>
<path fill="#ABABAB" opacity="1.000000" stroke="none" 
	d="
M244.563110,193.439011 
	C245.090729,195.447464 245.318756,197.123016 245.892776,198.670197 
	C250.258652,210.437943 248.762405,221.700211 244.603088,233.382309 
	C239.369507,248.081619 235.503601,263.267487 231.024902,278.236633 
	C230.576385,279.735687 229.971359,281.187958 228.389450,282.655640 
	C206.971558,197.015076 185.553680,111.374504 163.951813,24.998268 
	C174.785248,24.998268 185.045380,24.998259 195.305496,24.998270 
	C204.005386,24.998280 204.014740,24.996042 206.086365,33.609695 
	C218.868042,86.754738 231.645142,139.900879 244.563110,193.439011 
z"/>
</svg>